<svg height="512pt" viewBox="0 -6 512.00253 512" width="512pt" xmlns="http://www.w3.org/2000/svg"><path d="m336.632812 193.808594c-29.074218-17.207032-65.042968-27.378906-103.980468-27.378906-29.089844 0-80.65625 15.734374-80.65625 15.734374-18.839844-18.84375-48.785156-20.644531-69.753906-4.199218l-36.273438 28.453125 32.257812 34.105469c-12.714843 19.019531-20.109374 40.652343-20.574218 63.640624l-47.609375 10.265626 5.742187 26.636718c7.558594 35.0625 42.109375 57.359375 77.171875 49.800782 11.730469 12.410156 25.992188 23.199218 42.15625 31.898437v66.765625h13.902344c25.527344 0 46.222656-20.695312 46.222656-46.222656 12.054688 2.101562 24.570313 3.21875 37.414063 3.21875 18.640625 0 36.597656-2.339844 53.445312-6.660156v49.664062h13.90625c25.527344 0 46.222656-20.695312 46.222656-46.222656v-30.273438c37.609376-25.6875 61.460938-63.890625 61.460938-106.554687 0-20.125-5.304688-39.257813-14.855469-56.550781zm0 0" fill="#fe8f8d"/><path d="m231.460938 198.253906c1.46875-.105468 2.851562-.167968 4.113281-.167968.488281 0 .972656.019531 1.460937.027343.523438-.007812 1.039063-.027343 1.566406-.027343 13.167969 0 25.722657 1.527343 37.199219 4.277343 7.574219-8.324219 12.203125-19.371093 12.203125-31.511719 0-25.886718-20.984375-46.871093-46.871094-46.871093-25.886718 0-46.871093 20.984375-46.871093 46.871093 0 11.683594 4.285156 22.363282 11.355469 30.570313 8.171874-1.703125 16.835937-2.789063 25.84375-3.167969zm0 0" fill="#ffb954"/><path d="m511.144531 263.355469c-2.238281-5.070313-8.164062-7.367188-13.238281-5.128907-4.542969 2.007813-9.3125 3.203126-14.222656 3.570313.714844-3.847656 1.089844-7.816406 1.089844-11.871094 0-17.699219-14.394532-32.097656-32.085938-32.097656s-32.085938 14.390625-32.085938 32.082031c0 17.183594 13.574219 31.253906 30.566407 32.050782-7.65625 7.464843-17.886719 12.015624-28.566407 12.644531-1.808593.105469-3.621093.078125-5.433593.078125-1.628907-17.199219-6.835938-33.839844-15.546875-49.609375-2.683594-4.855469-8.789063-6.617188-13.644532-3.933594-4.851562 2.679687-6.613281 8.785156-3.933593 13.640625 9.027343 16.34375 13.605469 33.738281 13.605469 51.695312 0 37.671876-20.804688 73.488282-57.085938 98.265626-2.738281 1.871093-4.375 4.972656-4.375 8.289062v30.277344c0 19.949218-16.230469 36.183594-36.183594 36.183594h-3.867187v-39.625c0-3.101563-1.433594-6.03125-3.882813-7.929688-2.453125-1.902344-5.644531-2.566406-8.648437-1.796875-16.425781 4.210937-33.566407 6.347656-50.953125 6.347656-12 0-24.007813-1.035156-35.6875-3.070312-2.917969-.507813-5.917969.300781-8.183594 2.207031-2.269531 1.90625-3.578125 4.71875-3.578125 7.683594 0 19.953125-16.234375 36.183594-36.183594 36.183594h-3.867187v-56.726563c0-3.695313-2.027344-7.089844-5.28125-8.839844-15.265625-8.214843-28.59375-18.292969-39.617188-29.957031-2.410156-2.550781-5.976562-3.65625-9.410156-2.917969-14.335938 3.09375-29.019531.414063-41.34375-7.539062-12.324219-7.949219-20.8125-20.226563-23.902344-34.5625l-3.628906-16.824219 37.796875-8.148438c4.550781-.980468 7.828125-4.957031 7.921875-9.609374.417969-20.539063 6.769531-40.144532 18.882812-58.261719 2.601563-3.898438 2.164063-9.074219-1.054687-12.480469l-24.6875-26.101562 27.613281-21.660157c16.949219-13.296875 41.222656-11.835937 56.457032 3.398438 2.621093 2.625 6.480468 3.585937 10.027343 2.503906.261719-.078125 13.890625-4.210937 30.75-8.160156.917969 3.984375 2.257813 7.851562 4.003907 11.542969-6.160157 1.914062-12.054688 4.195312-17.609376 6.855468-5 2.390625-7.117187 8.386719-4.726562 13.386719 1.757812 3.664063 5.667969 5.957031 9.722656 5.6875 2.242188-.148437 4.132813-1.210937 6.144532-2.105469 2.394531-1.066406 4.828124-2.035156 7.296874-2.921875 10.0625-3.617187 20.605469-5.847656 31.226563-7.003906 21.296875-2.308594 43.476563-.480469 63.761719 6.585937 5.515625 1.921876 10.648437 4.425782 15.863281 7.015626 4.777344 2.375 10.730469.542968 13.300781-4.140626 2.667969-4.859374.894532-10.960937-3.964844-13.632812-5.808593-3.191406-12.132812-5.945312-18.835937-8.265625 1.667969-3.273437 3.019531-6.691406 4.023437-10.222656 12.550782 4.117187 24.507813 9.476562 35.632813 16.0625 4.773437 2.824219 10.929687 1.242187 13.753906-3.527344 2.824219-4.773437 1.246094-10.929687-3.527343-13.753906-13.660157-8.082031-28.410157-14.523438-43.929688-19.25-2.507812-29.074219-26.964844-51.976563-56.683594-51.976563-28.796875 0-52.652344 21.507813-56.386718 49.300782-12.628907 2.84375-23.820313 5.894531-30.179688 7.710937-22.472656-18.484375-55.203125-19.175781-78.519531-.886719l-36.273438 28.457032c-2.222656 1.742187-3.605469 4.339843-3.816406 7.15625-.207031 2.8125.777344 5.589843 2.71875 7.640624l26.917969 28.460938c-9.945313 16.921875-15.925782 35.398438-17.550782 54.1875l-40.117187 8.648438c-2.601563.558593-4.875 2.132812-6.316406 4.371093-1.445313 2.238281-1.941407 4.957031-1.378907 7.558594l5.742188 26.636719c4.21875 19.578125 15.8125 36.34375 32.644531 47.203125 15.230469 9.828125 33.097657 13.757812 50.871094 11.285156 10.351563 10.234375 22.28125 19.28125 35.585937 26.984375v60.878906c0 5.542969 4.496094 10.039063 10.039063 10.039063h13.90625c27.09375 0 49.773437-19.25 55.085937-44.789063 9.429688 1.183594 18.996094 1.78125 28.550782 1.78125 14.691406 0 29.242187-1.394531 43.40625-4.152344v37.121094c0 5.542969 4.492187 10.039063 10.039062 10.039063h13.902344c31.023438 0 56.261719-25.238281 56.261719-56.261719v-25.070312c36.601562-26.621094 58.5-63.738282 61.179687-103.480469h2.507813c24.085937 0 45.148437-13.207031 56.320312-32.761719h4.136719c8.871094 0 17.488281-1.820312 25.609375-5.40625 5.074219-2.238281 7.367187-8.164062 5.128906-13.238281zm-270.011719-129.335938c20.308594 0 36.832032 16.523438 36.832032 36.832031 0 7.296876-2.160156 14.359376-6.164063 20.367188-15.738281-3.097656-31.941406-3.871094-47.917969-2.5625-4.679687.382812-9.339843.953125-13.96875 1.722656-3.648437-5.824218-5.613281-12.585937-5.613281-19.527344 0-20.308593 16.523438-36.832031 36.832031-36.832031zm221.929688 127.898438h-10.375c-6.621094 0-12.007812-5.386719-12.007812-12.007813s5.386718-12.003906 12.007812-12.003906 12.007812 5.390625 12.007812 12.019531c0 4.152344-.570312 8.175781-1.632812 11.992188zm0 0"/><path d="m112.523438 281.277344c-3.632813-2.429688-8.5625-2.179688-11.941407.59375-3.097656 2.539062-4.410156 6.839844-3.234375 10.671875 1.25 4.066406 5.015625 6.972656 9.273438 7.121093 4.203125.148438 8.105468-2.464843 9.65625-6.351562 1.734375-4.347656.121094-9.4375-3.753906-12.035156zm0 0"/><path d="m240.785156 70.277344c5.542969 0 10.039063-4.496094 10.039063-10.042969v-50.195313c0-5.542968-4.496094-10.039062-10.039063-10.039062-5.542968 0-10.039062 4.496094-10.039062 10.039062v50.195313c0 5.546875 4.496094 10.042969 10.039062 10.042969zm0 0"/><path d="m280.949219 103.792969c5.542969 0 10.039062-4.496094 10.039062-10.039063v-54.078125c0-5.546875-4.496093-10.039062-10.039062-10.039062s-10.039063 4.492187-10.039063 10.039062v54.078125c0 5.542969 4.496094 10.039063 10.039063 10.039063zm0 0"/><path d="m201.316406 103.792969c5.542969 0 10.039063-4.496094 10.039063-10.039063v-54.078125c0-5.546875-4.496094-10.039062-10.039063-10.039062-5.542968 0-10.039062 4.492187-10.039062 10.039062v54.078125c0 5.542969 4.496094 10.039063 10.039062 10.039063zm0 0"/><path d="m359.164062 222.007812c1.609376 3.859376 5.5625 6.40625 9.757813 6.1875 4.128906-.214843 7.796875-3.015624 9.066406-6.957031 1.285157-3.984375-.125-8.484375-3.449219-11.03125-3.375-2.589843-8.140624-2.742187-11.679687-.386719-3.9375 2.617188-5.515625 7.824219-3.695313 12.1875zm0 0"/></svg>